<svg version="1" xmlns="http://www.w3.org/2000/svg" width="2697.333" height="2697.333" viewBox="0 0 2023.000000 2023.000000"><path d="M69.4 316.7c-1.5 21.5-.9 66.1 1 80.7 3.7 28.4 10.4 51.8 21.1 73.1 8.3 16.4 17.2 29 30.3 42.6 17.3 18 33.9 30 59.3 42.9 26.5 13.5 49.1 22 100.2 38 72 22.6 134.7 44.4 149.2 51.8 30.9 15.9 52 44.1 54.2 72.4 1.1 14.4-3.4 31.8-11.9 46.2-4.7 8-15.9 24.7-19.5 28.9-2.4 3-2.3 4.7.3 4.7.8 0 4.2-1.4 7.5-3 13.5-6.8 26.5-15.9 36.7-25.4l5.2-4.9V596.2l-6.7-6c-19.9-17.5-38.9-28.2-68.3-38.3-14.8-5.1-33.2-10.4-99-28.4-29.4-8.1-60-16.7-68-19.1-114.8-35.6-170.4-91.5-185-186.1-1.1-7-2-13.1-2-13.6 0-.4-.9-.7-1.9-.7-1.7 0-2 1.2-2.7 12.7zM1974.6 306.2c-.3 1.3-1.2 7.2-2.1 13.1-8.5 56.6-34.4 101.5-77.1 133.7-22.1 16.7-46.9 29.6-82.4 42.8-18.4 6.8-34.8 11.6-102.6 30.2-84.6 23.2-99.5 28-121 38.8-11.6 5.8-27.6 16.9-36.6 25.2l-7.8 7.2v167.4l6.4 5.7c8.9 7.8 20.1 15.7 31.7 22.3 7.7 4.4 10.5 5.5 12.5 5l2.6-.7-3.4-4.2c-6.4-8-18.8-27.5-22.8-35.9-6.3-13.1-8.3-22.8-7.8-36.7.4-9.8 1-12.9 3.6-20 4.4-11.6 11.2-22.1 21.2-32.5 9.3-9.6 23.1-19.5 34.5-24.6 14.6-6.6 58.6-21.5 161-54.5 74.6-24.1 110.1-42.6 140.5-73.4 14.3-14.5 23-26.6 32-44.4 18.5-36.8 26.2-83.8 23.1-141.3-1.3-23.7-1.6-25.4-3.6-25.4-.8 0-1.7 1-1.9 2.2z"/><path d="M108 548.6c0 2 .9 8.2 2.1 13.7 6 29.8 19 53.8 40.9 75.8 21.3 21.3 45.1 34.1 79.9 42.9 24.6 6.1 47.3 9 99.1 12.5 52.7 3.5 89.4 7.6 99.8 11.1 16.1 5.4 23.8 13.1 34.3 34.6 1.8 3.8 3.6 6.8 4 6.8 1.3 0 2.9-9.9 2.9-17.3-.1-19-8.8-38-23.7-51.7-12.4-11.4-32.7-22.4-53.8-29.3-14.6-4.8-20.7-6.3-63.5-15.2-77-16.1-90.3-19.7-111.3-30-6.2-3-15.4-8.2-20.6-11.5-5.1-3.4-10.2-6-11.3-5.8-1.8.3-1.7.7 1.3 5.3 5.2 8 21.5 23.7 30.9 29.8 9.8 6.3 21 12.1 33.7 17.3 14.8 6.1 13.3 5.9-15.1-2.3-56.3-16.1-91.7-37.8-116.6-71.4-3.2-4.3-7.2-10.3-9-13.3-1.7-3.1-3.3-5.6-3.6-5.6-.2 0-.4 1.6-.4 3.6zM1938.7 547.2c-11.7 18.9-21.2 30.6-33.6 41.4-20.6 17.9-45.8 31.4-79.5 42.3-12.1 4-37.5 11.1-39.2 11.1-.5 0 4.4-2.3 10.9-5 23-9.6 37.1-18.3 50.2-31.5 8.1-8.1 15.5-17.4 15.5-19.7 0-2-4-.4-12.7 5.3-12.2 7.9-31.1 16.9-44.3 21.3-11.7 3.8-37.9 9.8-89.5 20.6-52 10.8-66.6 15-86.5 25-13.4 6.7-24.2 14.3-32.1 22.8-13.8 14.7-19 26.6-19.7 45.2-.4 10.8.8 20 2.6 20 .4 0 3.3-5.2 6.5-11.5 10-19.7 20.1-28 38.7-31.9 12.4-2.5 49-6.1 100-9.6 70.3-4.9 101.9-11.4 134-27.5 43.2-21.6 73.3-63.5 80.1-111.3 1.2-8.9.9-10.7-1.4-7zM538 682.6v85.9l187.2-.4c103-.1 191.9 0 197.5.4l10.3.7V1325h177V768h405V598h-310.7c-171 0-390.8-.3-488.5-.7l-177.8-.6v85.9z"/><path d="M242.8 704.7c-2.9.7-2.1 2 3.5 6.2 11.9 8.9 33.7 17.5 53.5 21 12.8 2.3 27.2 3.7 52.2 5.1 50.3 2.8 65.2 5 78.1 11.5 6 3 13.3 9.3 16.9 14.4 1.9 2.8 3.8 5 4.1 5.1 1.6.1 3.1-9.6 2.7-17.2-.3-7-.9-9.3-3.8-14.6-3.8-7.2-12.1-15.3-19.7-19.5-2.8-1.5-8.6-3.6-12.9-4.7-7.2-1.9-10.9-2-61.8-1.8-53.9.1-70-.5-95.6-3.8-6.3-.8-12.4-1.6-13.5-1.8-1.1-.2-2.8-.1-3.7.1zM1798.5 705.1c-23.7 4.1-67.1 6-119.5 5.2-33.2-.5-38.4-.4-45.3 1.1-16.5 3.7-29.4 13.1-35.8 26.2-3.1 6.2-3.4 7.7-3.3 15.4 0 5.2.6 9.8 1.5 11.9l1.5 3.4 3.9-5.2c7.4-10.2 17.9-16.6 32.7-20.1 8.5-2 32-4.4 53.3-5.5 39.1-2 56-3.9 72.8-8.1 17.1-4.3 31.3-10.5 42-18.5 5.3-3.9 5.7-4.5 4.1-5.6-1-.7-2-1.2-2.3-1.2-.3.1-2.8.5-5.6 1zM538 1312v459h232V853H538v459zM1281 1312v459h234V853h-234v459zM933 1609.5V1775h177v-331H933v165.5z"/></svg>